<?xml version="1.0" standalone="yes"?>
<svg width="1764" height="594">
<path style="fill:#010101; stroke:none;" d="M0 0L0 54L1080 54L716 418L599 535C580.195 553.805 556.303 572.275 541 594L1764 594L1764 540L684 540L719 504L787 436L815 408L829 395.603L846 395L882 395L1003 395L1413 395L1367 348L1277 258L1240 221L1223 205.603L1204 205L1162 205L1020 205L1064 160L1173 52L1224 0L0 0z"/>
<path style="fill:#ffffff; stroke:none;" d="M1224 0L1081 142L1040 183L1020 205L1161 205L1203 205L1222 205.603L1240 222L1278 260L1413 395L1002 395L881 395L845 395L828 395.603L815 407L790 432L717 505C706.773 515.227 690.129 526.857 684 540L1764 540L1734 509L1676 451L1495 270L1314 89L1255 30L1224 0z"/>
<path style="fill:#010101; stroke:none;" d="M1225 0L1255 31L1313 89L1493 269L1674 450L1733 509L1764 539L1764 0L1225 0z"/>
<path style="fill:#ffffff; stroke:none;" d="M0 54L35 90L103 158L130 185L144 197.397L161 198L197 198L318 198L730 198L594 334L556 372L538 388.397L519 389L477 389L336 389L356 411L397 452L540 594L571 564L629 506L810 325L991 144L1049 86L1080 54L0 54z"/>
<path style="fill:#010101; stroke:none;" d="M0 55L0 594L540 594L489 542L380 434L336 389L478 389L520 389L539 388.397L556 373L593 336L684 245L730 198L319 198L198 198L162 198L145 197.397L132 186L105 159L36 90L0 55z"/>
</svg>
